<svg xmlns="http://www.w3.org/2000/svg" width="24" height="24" viewBox="0 0 24 24">
  <defs>
    <clipPath id="icons8-whatsapp-a">
      <path d="M12,0 C18.627,0 24,5.373 24,12 C24,18.627 18.627,24 12,24 C9.84649,24 7.829354,23.425062 6.0820312,22.431641 L0.1074219,24 L1.7109375,18.150391 C0.6323415,16.350068 0,14.251208 0,12 C0,5.373 5.373,0 12,0 Z M8.08815259,6.40233088 L7.892578,6.40229202 C7.692578,6.40229202 7.371656,6.4754375 7.097656,6.7734375 C6.8286563,7.071437 6.0605469,7.788906 6.0605469,9.253906 C6.0605469,10.713906 7.122484,12.129219 7.271484,12.324219 C7.420484,12.524219 9.327563,15.6215 12.351562,16.8125 C14.858562,17.7995 15.370922,17.603734 15.919922,17.552734 C16.463922,17.505734 17.676828,16.835578 17.923828,16.142578 C18.170828,15.448578 18.17075,14.853516 18.09375,14.728516 C18.01875,14.607516 17.823391,14.533766 17.525391,14.384766 C17.227391,14.235766 15.766188,13.515969 15.492188,13.417969 C15.222188,13.319969 15.023125,13.268406 14.828125,13.566406 C14.628125,13.864406 14.061766,14.533516 13.884766,14.728516 C13.712766,14.928516 13.540187,14.951734 13.242188,14.802734 C12.944188,14.653734 11.986562,14.342125 10.851562,13.328125 C9.968563,12.542125 9.371219,11.568484 9.199219,11.271484 C9.027219,10.974484 9.181078,10.811109 9.330078,10.662109 C9.465078,10.532109 9.628344,10.318484 9.777344,10.146484 C9.921344,9.969484 9.972312,9.848437 10.070312,9.648438 C10.173313,9.453437 10.120875,9.277906 10.046875,9.128906 C9.972875,8.979906 9.395859,7.509828 9.130859,6.9238281 C8.907859,6.4308281 8.674938,6.4151563 8.460938,6.4101562 C8.287937,6.4011562 8.087578,6.40229202 7.892578,6.40229202 Z"/>
    </clipPath>
  </defs>
  <g clip-path="url(#icons8-whatsapp-a)">
    <polygon points="0 0 24 0 24 24 0 24 0 0"/>
  </g>
</svg>
